<?xml version="1.0" encoding="utf-8"?>
<!-- Generator: Adobe Illustrator 21.1.0, SVG Export Plug-In . SVG Version: 6.00 Build 0)  -->
<svg version="1.1" id="Capa_1" xmlns="http://www.w3.org/2000/svg" xmlns:xlink="http://www.w3.org/1999/xlink" x="0px" y="0px"
	 viewBox="0 0 49.2 49.2" style="enable-background:new 0 0 49.2 49.2;" xml:space="preserve">
<style type="text/css">
	.st0{fill:#FFFFFF;}
</style>
<path id="facebook" class="st0" d="M39.2,2.4C38.9,0.3,33.9,0,31,0s-5.9,0.3-9.8,2.4s-5.2,5.7-5.8,7.9c-0.4,2.3,0.2,8.7,0.2,8.9
	s-3,0.2-4.2,0.2c-1.2,0.1-1.4,0.6-1.5,0.9s0.5,8.7,0.5,8.7l0.4,3c0.7,0.4,3.9,0.2,4.4,0.3c0.6,0.1,0.8,0.9,0.8,3
	c0.1,2.1,0.4,10.2,0.4,11.9c0.1,1.7,0.8,1.7,2.6,1.7s8.8,0.3,9.2,0.3s0.8-0.5,0.8-2.1s0.5-14.7,0.6-15s1.1,0,2,0s5.2-0.3,6-0.4
	c0.8-0.1,1.1-8,1.1-10.5S37,18.5,36,18.5c-1.1-0.1-6.1,0.2-6.4-0.1c-0.3-0.2,1-4.1,2.6-4.9c1.7-0.8,5.8-0.4,6.3-0.3s0.9-1.1,0.9-2
	C39.4,10.2,39.4,4.5,39.2,2.4z M35.6,19.3c0.2,0,0.9,0.8,1.1,1.1s-0.1,0.9-0.2,1c-0.1,0.1-0.9-1.4-1-1.6S35.5,19.3,35.6,19.3z
	 M38.2,9.8c-0.5,0.1-4.9-0.4-7.5,0.5c-2.5,0.9-3.9,3.5-4.1,4.9s-0.2,4,0.2,4s4,0.1,5.3,0.1c1.4,0.1,2.1,0,2.2,0.2
	c0.1,0.2,2,2.9,2,3.1s-0.2,1.1-0.3,1s-1.9-3.2-2-3.1s-0.5,0.6-0.2,0.9c0.2,0.3,2.1,3.2,2.1,3.3c0,0.1-0.3,0.8-0.4,0.6
	c-0.1-0.2-2.3-3.9-2.4-3.8c-0.1,0.1-0.5,0.5-0.3,0.8s2.5,3.6,2.5,3.7c0,0.2,0,1.5-0.2,1.5c-0.2-0.1-2.3-4-2.6-4
	c-0.4,0-0.5,0.7-0.3,0.9s2.7,3.9,2.7,4s-0.6,0.4-0.8,0.3c-0.2-0.2-2.2-4-2.4-4s-0.8,0.3-0.6,0.5c0.2,0.3,2.1,3.4,2,3.5
	c-0.1,0-0.5,0.2-0.8-0.2c-0.3-0.3-1.9-3.1-2.1-3s-0.6,0.5-0.4,0.7c0.2,0.3,2,2.4,1.8,2.5s-1.2,0-1.3-0.1s-1.1-2.1-1.3-2.1
	s-0.5,0.4-0.4,0.6s0.9,1.5,0.8,1.5s-2.3-0.1-2.4,0.2c-0.1,0.3,0.1,2.1,0,2.1c-0.1-0.1-1.1-2.1-1.3-2.1s-0.4,0.6-0.3,0.8
	c0.1,0.3,1.7,2.1,1.7,2.3c0.1,0.2,0.1,1.7-0.1,1.5c-0.1-0.2-1.6-2.9-1.7-2.8s-0.4,0.7-0.3,0.9s2.1,3,2.1,3.2s0.1,2.1,0,2
	c-0.1-0.2-2.3-4.2-2.4-4.2c-0.2,0-0.3,0.9-0.2,1.2s2.6,4,2.6,4.2s0.1,1.2-0.1,1.1c-0.1-0.1-2.7-4.9-2.9-4.8
	c-0.1,0.1-0.2,0.8-0.2,1.1c0.1,0.3,3,4.8,3.1,4.9s0,2.1-0.1,2s-3.1-5.3-3.3-5.3c-0.2,0-0.3,0.9-0.2,1.2c0.1,0.2,3.5,5,3.5,5.2
	c0,0.3,0.1,1.5,0,1.4s-3.7-5.9-3.8-5.9c-0.1,0-0.3,0.8-0.3,1c0.1,0.2,4,6.1,4,6.3s0,0.4-0.3,0.4c-0.2,0-0.5,0-0.7-0.2
	s-3.5-5.6-3.7-5.5s-0.3,0.9-0.2,1.2c0.1,0.3,3.5,4.6,3.4,4.6c-0.1,0.1-4.7-0.3-5-0.3c-0.4,0-0.7-0.1-0.7-0.1s0.2-0.2-0.3-0.7
	c-0.4-0.5-1.1-1.2-1.3-1c-0.3,0.2-0.2,0.5,0,0.7s0.9,0.7,0.8,0.8s-1.9,0-2-0.2s-0.1-7.4-0.2-9.9s-0.2-6.1-0.7-6.5
	c-0.6-0.4-4.7-0.5-4.9-0.7c-0.2-0.2-0.7-8.2-0.4-8.3c0.3-0.1,4.2,0.1,4.8-0.3c0.7-0.4,0.8-1.1,0.7-2s-0.7-7.2,0.5-9.6
	s3.5-4.7,7.1-6.2c3.6-1.4,8-1.3,11.1-0.9c3.1,0.4,3.4,1,3.4,2.4C38.6,5.2,38.6,9.7,38.2,9.8z M17.4,20.1c-0.2,0-0.2,0.8-0.2,1
	c0,0.3-1.6,0.1-2,0.1s-0.8,0.1-0.7,0.4c0,0.1,0,0.4,0.2,0.5s3.3,0.1,3.6,0.1c0.3,0,0.2-1.6,0.2-1.9C18.3,20,17.6,20.1,17.4,20.1z
	 M22.1,5.4c-0.8,0.4-2.3,1.6-3.3,3.2c-0.9,1.5-1.2,2.7-1.2,3.7s0.1,1.7,0.3,1.8c0.2,0.1,0.5,0,0.7,0s0-2.9,1.3-5.2S23.2,6,23.5,6
	c0.3,0,0.3-0.5,0.2-0.9C23.7,4.7,22.9,5,22.1,5.4z M28.1,10.2c-0.2-0.1-1.1,0.2-1.5,0.7c-0.5,0.5-1.3,1.9-1.5,2.4s-0.1,1.2,0.2,1.3
	c0.3,0.1,0.5,0,0.7-0.1s0.2-1.1,0.6-2s1.6-1.4,1.8-1.5C28.5,10.9,28.3,10.3,28.1,10.2z M34,2.2c-0.4-0.1-0.7,0.8-0.4,0.9
	c0.2,0.1,1.8,0.3,2.2,0.4c0.4,0.1,0.7,0,0.8,0.3s0,2.8,0.2,2.9s0.9,0.4,0.9-0.3s0.1-3.4-0.2-3.6C37.1,2.6,34.5,2.3,34,2.2z
	 M19.6,42.8c-0.3,0.1-0.4,0.3-0.1,0.8s1.9,2.4,2.2,2.4c0.3,0,0.6-0.3,0.4-0.6C21.8,45,19.9,42.7,19.6,42.8z M21.3,42
	c-0.1-0.1-0.6,0.4-0.5,0.6c0,0,2.1,2.7,2.4,3.1c0.3,0.4,0.6,0.5,0.8,0.3c0.3-0.2-0.1-0.6-0.3-1C23.6,44.6,21.4,42,21.3,42z"/>
</svg>
