<?xml version="1.0" encoding="utf-8"?>
<!-- Generator: Adobe Illustrator 21.1.0, SVG Export Plug-In . SVG Version: 6.00 Build 0)  -->
<svg version="1.1" id="Capa_1" xmlns="http://www.w3.org/2000/svg" xmlns:xlink="http://www.w3.org/1999/xlink" x="0px" y="0px"
	 viewBox="0 0 50 50" style="enable-background:new 0 0 50 50;" xml:space="preserve">
<style type="text/css">
	.st0{fill:#FFFFFF;}
</style>
<path id="vk" class="st0" d="M40.6,26.1c-0.1-0.3,0.3-0.3,1.2-1.3c0.9-0.9,3.9-4.7,6.2-7.6s2-4.8,1.9-6.5c-0.1-1.8-1.1-2.6-2.1-3
	c-1-0.4-5.9-0.2-6.7-0.1s-1.2,0.5-1.7,1.2s-3.3,5.1-4.5,6.5c-1.1,1.4-3.5,3.6-3.7,3.5S31,13,30.9,11.7c-0.2-1.3-2.7-2.5-4.3-2.6
	s-8.4,0.2-9.2,0.4c-0.8,0.2-1.3,1-1.2,1.3s1.5,1.7,1.9,2.2s0.8,5.4,0.8,7.5c0,2-0.8,2.9-1.1,2.8c-0.3-0.1-1.6-0.6-3.1-2.4
	c-1.6-1.8-5.6-10.2-5.8-10.4C8.7,10.2,8,10.1,5.7,10s-4.6,0.2-5,0.9c-1.2,2-0.6,6.1,0,7.9s1.7,4.9,3.9,8.3c2.2,3.5,5.6,7.1,8.9,10.3
	s5.7,4.2,7.1,4.7s4,0.3,6.2,0.2s3.1-1,3.5-2.1c0.5-1.1,0.4-3.9,0.3-4.2s-0.1-1.5,0.4-1.6c0.5,0,0.9,0.6,1.7,1.5s2.1,4.5,2.6,4.9
	c0.6,0.4,1.7,0.7,3.6,0.7s5.9-0.1,6.7-0.4c0.8-0.3,2.5-2.3,2.8-3.6s-0.7-2.6-1.6-4.3C45.7,31.4,40.7,26.3,40.6,26.1z M47,37.5
	c-0.1-0.2-3.7-4.6-4.9-6.2c-1.2-1.6-1.8-2.2-2.1-2c-0.4,0.2-0.2,0.6,0,0.8c0.2,0.2,6.4,7.6,6.3,7.7S45.1,38.2,45,38s-2.4-3.6-4-5.3
	c-1.5-1.8-2.5-2.6-2.8-2.5s-0.4,0.6-0.1,0.9s2.3,1.8,3.6,3.6s2.6,3.3,2.4,3.4c-0.2,0.2-1.4,0.1-1.4,0.1c-0.1-0.1-2.7-3.5-4-4.9
	c-1.3-1.4-1.5-1.5-1.9-1.4c-0.4,0.2,0.4,0.9,1,1.5s3.6,4.2,3.8,4.4s0.3,0.6,0.1,0.6s-1.4,0-1.5-0.1s-4.2-6-4.6-6
	c-0.4-0.1-0.6,0.2-0.5,0.4s4.3,5.4,4,5.5s-1,0.1-1.2-0.2c-0.3-0.2-2.8-4-4.4-5.3c-1.6-1.3-2.6-1.7-3.4-1.7s-1.3,0.7-1.3,0.7
	s-2.3-2.7-2.6-2.6c-0.4,0.1-0.4,0.4-0.2,0.7c0.2,0.3,2.3,2.3,2.3,2.5c0,0.1-0.2,1.4-0.2,1.5s-3-3.2-3.2-3.2
	c-0.2,0.1-0.4,0.7-0.3,0.9s3.8,3.2,3.8,3.5c0.1,0.3,0.2,2.2,0,2s-4-4.7-4.2-4.7s-0.6,0.6-0.5,0.8c0.2,0.2,4.6,4.5,4.5,4.7
	c0,0.2-0.4,0.5-0.7,0.4s-4.2-4.7-4.6-4.6c-0.4,0.2-0.7,0.4-0.4,0.7s4.1,3.9,4,4.1s-1.2,0.1-1.4,0s-3.3-4.2-3.9-4
	c-0.5,0.1-0.6,0.6-0.4,0.8c0.2,0.3,3.5,3.2,3.3,3.3s-1.2,0.1-1.4,0c-0.3-0.1-2.9-3.2-3.3-3.3c-0.3-0.1-0.6,0.4-0.5,0.6
	s2.2,2.2,2.1,2.4s-2.9-0.7-4.3-1.8s-4.8-4.3-7-7.3s-3.5-4.6-5.5-8.5s-3.7-8.3-2.7-9.4c0.3-0.4,1-0.6,1.9-0.6s4.3-0.1,4.5,0.2
	s3,6.6,4.6,8.9s3.1,3.8,4,4.2c1,0.4,2.3,0,2.8-1.2s0.5-3.2,0.3-4.8c-0.2-1.6,0-4.3-0.7-5.4s-1.3-1.9-1.3-2c0.1-0.2,3.6-0.4,6-0.5
	s4.2-0.3,4.3,1s0.1,3.1,0,5.9c-0.1,2.7,0,3.4,0.9,3.8s2.1-0.1,4.1-1.9s4-4.6,5.3-6.6s2.4-3.4,2.5-3.5c0.2-0.1,4.4-0.4,4.8-0.1
	s1.7,2,1.9,2.1c0.2,0.2,0.2,0.4,0.2,0.5s-0.3,0.9-0.5,0.7s-1.7-1.8-2-1.7s-0.4,0.3-0.2,0.7c0.3,0.3,1.9,1.6,1.8,1.8
	c0,0.2-0.6,1.1-0.7,1s-1.9-2.4-2.2-2.3c-0.2,0.1-0.6,0.6-0.3,0.8c0.2,0.3,1.9,2,1.9,2.2s-0.6,1.1-0.7,1s-2-2.1-2.2-2
	S42,13.7,42.2,14s2.2,1.9,2.1,2.2c-0.1,0.3-0.7,1.4-0.8,1.3c-0.2-0.1-2.3-2.7-2.5-2.5s-0.5,0.4-0.3,0.6s2.2,2.5,2.2,2.6
	S42.4,19,42.3,19s-2-2.3-2.2-2.2s-0.6,0.4-0.5,0.6s2.1,2.1,1.8,2.5s-0.5,0.7-0.7,0.7s-2.2-2.5-2.4-2.4s-0.6,0.3-0.5,0.6
	c0.1,0.3,2.4,2.4,2.3,2.6s-0.7,0.7-0.9,0.6s-2-2.2-2.3-2.1s-0.5,0.1-0.5,0.4s2,2.1,1.9,2.3c-0.2,0.2-1.2,0.7-1.6,1.1
	s-0.4,0.7-0.1,0.9s4.4,3.5,6.7,6.5s2.9,4.2,3.2,5C47.1,36.8,47.1,37.7,47,37.5z M5.7,12.2c-0.3-0.2-2.9-0.2-3,0.1s0.9,3.5,1.2,3.7
	c0.4,0.2,0.7-0.1,0.8-0.3S4,13.3,4.1,13.1c0-0.2,1.4-0.1,1.6-0.1C5.9,12.9,6,12.4,5.7,12.2z M22.5,11.2c-0.1,0.2,0,0.7,0.3,0.8
	s2.4,0.2,2.6,0.3s0.2,1.2,0.2,1.6c0.1,0.4,0.7,0.2,0.9,0s0.1-2.4,0-2.6S22.6,11.1,22.5,11.2z"/>
</svg>
