<?xml version="1.0" encoding="utf-8"?>
<!-- Generator: Adobe Illustrator 21.1.0, SVG Export Plug-In . SVG Version: 6.00 Build 0)  -->
<svg version="1.1" id="Capa_1" xmlns="http://www.w3.org/2000/svg" xmlns:xlink="http://www.w3.org/1999/xlink" x="0px" y="0px"
	 viewBox="0 0 512 512" style="enable-background:new 0 0 512 512;" xml:space="preserve">
<style type="text/css">
	.st0{fill:#FFFFFF;}
</style>
<g>
	<g>
		<path class="st0" d="M7.8,244.6c11,119,99.9,232.2,217.2,260.8c151.8,37,274.7-87.3,280.2-232.6c3-78.6-25.4-167.1-78.4-225.7
			C381.3-3.1,307.3-5.8,244.4,5.5c-1.9-2-4.6-3.2-8-2.8C163,12.2,98.3,26.4,49.4,86.4C13.3,130.6,2.7,189.1,7.8,244.6z M62.6,107.2
			c41-60.8,110-71.9,177-81.5c3.4-0.5,5.7-2.4,7-5c59.8-0.8,118.3-3.3,165.1,41.5c52.8,50.6,72.2,140.4,72.3,210.6
			c0.4,147.7-138.8,251.1-278.8,204.4C108.5,445,42.4,342.3,30.5,244.6C24.6,196.1,35.3,147.7,62.6,107.2z"/>
		<path class="st0" d="M222.9,419.3c1.4-3.5,2.4-7.1,3.3-10.9c6.7,4.1,14.1,7.3,21,11c10.7,5.7,21.3,11.3,31.9,17.1
			c-22.6-3.9-45.1-8.6-67.6-11.2c-9.6-1.1-10.3,11.6-4.4,16.1c22.7,17.1,61.3,15.7,88.7,19.5c5.6,0.8,11.7-1.3,13.2-7.5
			c9.3-39.5,22-99.1,17.2-149.7c1.7-1.6,2.1-4.5-0.6-6l0,0c-2.3-18.4-7.1-35.5-15.5-49.8c3.6-2.2,3.4-9.2-1.5-10.5
			c-13-3.4-26.5-4.3-39.8-5.3c-12.6-1-26-4.2-38.7-3.2c-8.8,0.7-11.4,9.3-8.1,14.9c-3.2,29.6-5.9,59.3-9.6,89
			c-3.3,26.3-13.3,61.1-3.9,86.6C211.1,426.6,220.2,426.2,222.9,419.3z M264.5,246.9c9.5-0.4,19.1-0.1,28.7,0.5
			c4.3,11.4,7.3,23.6,9.2,36.4c-10.5-6.6-20.9-13.6-31.2-20.4c-5.7-3.7-13.5-10.5-21.5-15.4C254.7,247.6,259.6,247.1,264.5,246.9z
			 M303.8,295c0.8,8.1,1.1,16.5,1.2,24.9c-11-7.5-22-15.2-32.8-23.1c-11.9-8.7-24-20.8-37.6-27.1c0-5.4,0.1-10.8-0.1-16.1
			C257.4,267.4,280.1,282.1,303.8,295z M234.3,284.1c8.5,6.8,18.4,12.2,27.3,18.1c14.3,9.4,28.8,18.6,43.4,27.6
			c-0.2,9.4-0.7,18.8-1.5,28.2c-11.2-8.5-22.5-16.9-33.8-25.3c-12.2-9-23.8-19.8-36.5-28.3C233.7,297.6,234.1,290.9,234.3,284.1z
			 M232.4,318.5c9,6.1,18.7,11.5,27.5,17.6c14.2,9.8,28.4,19.6,42.7,29.2c-0.7,7.1-1.6,14.1-2.6,21.1c-10.6-8.2-21.5-16.1-32.6-23.7
			c-10.3-7.1-21.4-17.9-33.8-20.9c-1-0.2-2-0.1-2.8,0.2C231.3,334.2,231.9,326.4,232.4,318.5z M230.3,351.4
			c8.7,7.2,19.4,11.7,29,17.7c13.4,8.3,26.6,17,39.4,26.1c-1.1,7-2.3,13.9-3.6,20.6c-16.1-11.8-31-25.4-46.8-37.6
			c-4.8-3.7-11.7-10.5-18.4-10.3C230,362.3,230.1,356.7,230.3,351.4z M229.7,380.8c0.3,0.2,0.5,0.4,1,0.7c2.3,1.6,4.9,2.8,7.2,4.2
			c7.6,4.7,14.9,9.8,22.2,14.9c11.1,7.7,22,15.9,33.4,23.2c-1,4.9-2,9.9-3,14.6c-2.3-0.4-4.7-0.8-7-1.2c2.3-1.1,3.3-4.6,0.5-6.4
			c-9.4-6.1-19-11.8-28.6-17.4c-9-5.2-17.7-11.8-27.2-16.2c0.7-5.3,1.1-10.8,1.4-16.3C229.6,380.8,229.6,380.8,229.7,380.8z"/>
		<path class="st0" d="M211.4,174.6c2.3,8.6,14.3,8.1,16.9,0c0.4-1.4,0.7-2.8,1.1-4.2c-0.5,1.9-0.3,4,0.6,5.6
			c5.8,10.5,22.3,8.6,32.2,8.3c15-0.5,30.4-1,45.5-2.7c2.6,1.6,6.2,1.3,8.3-1.1c0.2,0,0.3,0,0.5-0.1c3.5-0.6,4-5.7,1.4-7.5
			c1.2-21.7,2.3-43.3,6.7-64.6c0.9-4.5-1.3-11-6.7-11.7c-28.5-3.8-56.9-4.7-85.6-4.8c-4.7,0-8,3.1-9.5,7.2
			C215.2,119.5,205.7,152.7,211.4,174.6z M236.5,164.8c-3.7-0.4-6.2,2.3-7,5.5c1.9-7.2,3-14.5,4-21.8c4.4,3.2,9.2,6.1,13.8,9.1
			c4.4,2.9,8.6,6.1,12.7,9.4C252.1,166.3,244.2,165.7,236.5,164.8z M305,114.3c-0.9,9.3-1.3,18.6-1.3,27.9
			c-4.4-5.3-9.1-10.4-14.3-15.4c-3.8-3.6-9.4-9.4-15.6-14.6C284.2,112.6,294.6,113.2,305,114.3z M239.6,111.5c3.2,0,6.4,0,9.6,0.1
			c3.8,2.4,8.3,4.1,12.1,6.4c8.2,5.1,15.7,11.4,22.9,17.8c6.4,5.6,13.1,11.2,19.5,16.8c0.1,6.1,0.3,12.1,0.6,18.2
			c-0.9-0.1-1.8-0.2-2.7-0.3c1.5-1.8,1.7-4.6-1-6c-13.4-7.1-26-16.2-38.2-25.2c-7.5-5.6-15.8-14.5-24.9-17.4c-0.1,0-0.2,0-0.4,0
			C238,118.4,238.6,115,239.6,111.5z M255.6,145.9c12.3,8.1,24.5,16.7,37.5,23.7c-8.3-0.8-16.5-1.4-24.8-2
			c-9.4-10.3-21.5-21.2-33.7-27.3c0.3-2.6,0.7-5.3,1-7.9C241.3,137.8,249.3,141.9,255.6,145.9z"/>
	</g>
</g>
</svg>
